<svg xmlns="http://www.w3.org/2000/svg" id="Layer_9" data-name="Layer 9" viewBox="0 0 69 64"><defs><style>.cls-1,.cls-2{fill:none;stroke-linecap:round;stroke-linejoin:round;stroke:#fff;stroke-width:2px}.cls-2{fill:none}</style></defs><path d="M52.42 13.66c.17.75.22 1.07.22 2.2 0 0 .85-2.24 3.09-1.94 0 0 2.51-.34 2.74 3.57.23 3.91.24 22.65.24 22.65s2.75-7.66 5.14-9.28c2.39-1.62 5.05-.72 3.85 3.25-1.19 3.97-2.84 10.1-4.22 12.17-1.38 2.07-2.63 4.51-5.56 7.13-2.93 2.61-2.38 9.6-2.38 9.6M37.44 63s-.46-3.85-1.37-7.73c-.92-3.88-1.72-10.27-1.65-17.56.03-2.93.25-3.88.5-6.12" class="cls-2"/><path d="M58.72 40.14s-8.08 1.18-10.48 6.38" class="cls-2"/><path d="M46.35 21.34v11.93M52.68 15.9v17.44M40.58 26.83v7.06" class="cls-1"/><path d="M17.44 11.42c-.87.76-1.08 2.23-1.08 4.44 0 0-.85-2.24-3.09-1.94 0 0-2.51-.34-2.74 3.57-.23 3.91-.24 22.65-.24 22.65s-2.75-7.66-5.14-9.28C2.76 29.24.1 30.14 1.3 34.11c1.19 3.97 2.84 10.1 4.22 12.17 1.37 2.07 2.63 4.51 5.56 7.13 2.93 2.61 2.38 9.6 2.38 9.6M31.56 63s.46-3.85 1.38-7.73c.92-3.88 1.72-10.27 1.65-17.56-.03-2.91-.26-5.14-.5-7.35" class="cls-2"/><path d="M10.28 40.14s8.08 1.18 10.48 6.38" class="cls-2"/><path d="M22.65 20.11v13.16M16.32 15.9v17.44M28.42 25.6v8.29" class="cls-1"/><path d="m33.87 29.97 1.37 1.22L49.4 18.54c.35-.31.66-.64.95-.98a9.954 9.954 0 0 0-.25-13.27C46.29.17 39.8-.14 35.61 3.61l-.36.32-.36-.32c-4.21-3.74-10.69-3.43-14.5.7-3.5 3.78-3.51 9.46-.25 13.27.29.34.6.67.95.98l12.79 11.42" style="fill:none;stroke:#fff;stroke-width:2px"/><path d="M42.5 4.42c.95 0 1.89.2 2.75.57.86.37 1.63.92 2.27 1.61a6.551 6.551 0 0 1 1.75 4.35" class="cls-2"/></svg>