<svg xmlns="http://www.w3.org/2000/svg" data-name="icon copy" viewBox="0 0 68 68"><path fill="#fff" d="M34 0C15.25 0 0 15.25 0 34c0 5.3 1.22 10.31 3.39 14.78-.21.11-.39.29-.48.54-1.93 5.33-1.67 9.59.74 12 1.25 1.25 2.94 1.87 4.98 1.87 1.73 0 3.73-.45 5.93-1.32A33.764 33.764 0 0 0 34 68c18.75 0 34-15.25 34-34S52.75 0 34 0Zm0 2c2.37 0 4.68.27 6.91.76 0 0 0 .02.01.02.75.91.63 1.06.06 1.78-.68.85-1.82 2.29-.04 4.89.89 1.29.69 1.56.16 2.02-.1.09-.7.04-1.01.01-.96-.09-2.39-.22-3.49.98-.05.05-.09.11-.13.18-.87 1.53.28 2.77 1.05 3.58.25.27.78.83.77 1.02 0 0-.03.12-.29.33-1.08.88-1.9 1.3-2.44 1.24-.22-.02-.57-.13-1.09-.78-.73-.91-1.5-1.08-2.02-1.05-1.02.04-1.74.79-2.02 1.14-1.97 1.45-1.82 3.44-1.53 4.82.33 1.55-.06 3.42-1.65 4.1-1.4.6-3.33-.2-4.12-1.31-.89-1.25-.87-2.9-.78-4.35.03-.53.09-1.41-.54-2.12-.6-.69-1.5-.88-2.38-1.01l-6.38-.99c-2.61-.24-3.18-2.41-3.2-4.19v-.02C15.71 6.29 24.36 2 34 2ZM8.13 15.2c.63 2.35 2.28 3.83 4.66 4.05l6.32.98c.3.05 1 .16 1.18.35.08.1.06.47.05.69-.12 1.92-.06 3.93 1.14 5.63.95 1.34 2.83 2.36 4.71 2.36.62 0 1.25-.11 1.83-.36 2.64-1.13 3.31-4.01 2.82-6.35-.31-1.47-.09-2.22.84-2.86.1-.07.19-.16.26-.26.1-.15.4-.43.57-.44.07-.01.22.09.39.31.74.92 1.54 1.42 2.44 1.51 1.13.12 2.34-.4 3.92-1.69.63-.52.98-1.1 1.02-1.74.07-1.05-.66-1.83-1.3-2.52-.56-.6-.83-.94-.8-1.15.4-.34.93-.31 1.73-.24.79.07 1.77.16 2.52-.5 2.09-1.84.74-3.81.17-4.65-.94-1.38-.64-1.76-.04-2.51.42-.53 1.03-1.3.87-2.39a32.138 32.138 0 0 1 14.24 9.06c-.64.13-1.49.44-2.15 1.17-.47.53-1 1.49-.83 3.03.31 2.77.33 2.99-5.25 4.24-1.99.44-3.24 1.38-3.72 2.79-.68 1.99.47 4.26 1.33 5.57-4.92.69-10.55 2.28-15.04 5.75-6.57 5.07-7.98 10.43-4.21 15.92-3.09 2.63-6.06 4.8-8.77 6.44-.08-.49-.18-1.17-.31-2 .03-.02.07-.03.1-.06.16-.14 3.81-3.37 3.85-8.71.03-4.47-2.46-8.98-7.41-13.4a1.005 1.005 0 0 0-1.46.13c-.2.26-4.94 6.48-3.57 13.08.7 3.35 2.85 6.16 6.37 8.36.3 1.94.52 3.35.57 3.64-.81.44-1.58.81-2.34 1.14C7.06 53.73 2.02 44.43 2.02 33.98c0-7.02 2.28-13.52 6.13-18.8Zm41.45 29.3a.973.973 0 0 0-.6-.48l-6.59-1.89 7.23-5.58c.44-.34.52-.97.18-1.4a.993.993 0 0 0-1.4-.18l-8.65 6.68c-.12.06-.22.14-.31.24l-3.08 2.38v-9.49c.01-.05-.01-.1-.02-.15 6.26-3.31 13.88-3.84 18.03-3.84.37 0 .72 0 1.03.01-.71 2.51-2.61 8.52-5.81 13.71Zm-20.25 5.18c-2.07-3.06-3.32-7.52 3.89-13.08.37-.29.76-.56 1.15-.82V45.79l-5.04 3.89Zm11.1-6.04 8 2.3c.07.02.13.02.19.03-1.29 1.87-2.77 3.57-4.44 4.85-7.21 5.57-11.2 3.22-13.64.44l9.88-7.62Zm-24.27 8.43c-2.16-1.71-3.51-3.72-3.99-6.02-.91-4.35 1.41-8.71 2.57-10.55 3.93 3.75 5.92 7.47 5.9 11.09-.01 2.95-1.4 5.17-2.33 6.33-.7-4.48-1.64-10.61-2.03-13.38a1 1 0 0 0-1.98.28c.36 2.55 1.18 7.92 1.85 12.26ZM5.07 59.91c-1.7-1.7-1.88-4.9-.55-9.03a34.35 34.35 0 0 0 8.15 9.56c-3.4 1.13-6.06 1.01-7.6-.53Zm11.67 1.01c3.66-1.78 7.81-4.61 12.28-8.4 2.16 2.45 4.59 3.69 7.3 3.69s5.8-1.27 9.09-3.82c3.54-2.73 6.25-7.03 8.21-11.13.22 0 .49-.02.81-.03.61-.03 2.04-.11 2.39 0 .5.18.84.59.98 1.21.28 1.15-.16 2.71-1.01 3.61-.68.72-1.52 1.31-2.41 1.93-1.22.85-2.48 1.73-3.4 3.03-1.83 2.6-1.38 6.94.82 9.56-5.09 3.42-11.22 5.42-17.8 5.42s-12.28-1.87-17.27-5.08Zm36.71-1.53c-1.7-1.91-2.15-5.34-.82-7.22.72-1.02 1.78-1.76 2.91-2.54.93-.65 1.9-1.32 2.72-2.2 1.32-1.4 1.93-3.64 1.5-5.45-.31-1.28-1.11-2.21-2.25-2.62-.62-.22-1.63-.2-2.95-.13 2.05-4.77 3.04-8.84 3.11-9.16.07-.29 0-.6-.19-.84s-.48-.38-.78-.39h-.17c-1.67-.08-4.24-.11-7.21.17-.64-.79-2.22-3.19-1.71-4.66.24-.7 1-1.2 2.26-1.48 6.31-1.4 7.27-2.3 6.81-6.41-.07-.66.03-1.14.33-1.47.43-.49 1.25-.61 1.52-.61.22 0 .41-.08.58-.2 4.33 5.46 6.92 12.35 6.92 19.84 0 10.34-4.93 19.54-12.56 25.39Z"/></svg>