<svg xmlns="http://www.w3.org/2000/svg" viewBox="0 0 60 66.22"><path d="M60 58.94c0-.27-.11-.52-.29-.71s-.44-.29-.71-.29h-5.19v-5.25c0-.36-.2-.65-.48-.83v-2.92c0-.55-.45-1-1-1h-.88V35.63h.88c.55 0 1-.45 1-1v-2.67h.48v-6.24h4.52v-5.93L30 0 1.67 19.79v5.93h4.52v6.24h2.45v2.67c0 .55.45 1 1 1h.89v12.31h-.89c-.55 0-1 .45-1 1v2.78H7.18c-.26 0-.52.11-.71.29a.99.99 0 0 0-.29.71v5.26H.99c-.55 0-1 .45-1 1v6.24c0 .27.11.52.3.71s.44.29.71.29l58-.04c.55 0 1-.45 1-1v-6.24Zm-32.92-9h.88c.55 0 1-.45 1-1V34.63c0-.55-.45-1-1-1h-.88v-1.67h7.8v1.67H34c-.55 0-1 .45-1 1v14.31c0 .55.45 1 1 1h.88v1.67h-7.8v-1.67Zm8.8-2H35V35.63h.88c.55 0 1-.45 1-1v-2.67h4.64v2.67c0 .55.45 1 1 1h.88v12.31h-.88c-.55 0-1 .45-1 1v2.76h-4.64v-2.76c0-.55-.45-1-1-1Zm15.44-14.31h-.88c-.55 0-1 .45-1 1v14.31c0 .55.45 1 1 1h.88v1.67h-7.8v-1.67h.88c.55 0 1-.45 1-1V34.63c0-.55-.45-1-1-1h-.88v-1.67h7.8v1.67ZM3.67 23.71v-2.88L30 2.44l26.33 18.39v2.88H3.67Zm4.52 2H51.8v4.24H8.19v-4.24Zm10.25 6.24v1.67h-.88c-.55 0-1 .45-1 1v14.31c0 .55.45 1 1 1h.88v1.67h-7.8v-1.67h.89c.55 0 1-.45 1-1V34.62c0-.55-.45-1-1-1h-.89v-1.67h7.8Zm1 15.99h-.88V35.63h.88c.55 0 1-.45 1-1v-2.67h4.64v2.67c0 .55.45 1 1 1h.88v12.31h-.88c-.55 0-1 .45-1 1v2.77h-4.64v-2.77c0-.55-.45-1-1-1Zm32.36 5.75v4.24l-43.61.03v-4.24l43.61-.03ZM2 64.22v-4.24l55.99-.04v4.24L2 64.22Z" style="fill:#fff"/></svg>