<svg width="270" height="82" viewBox="0 0 270 82" fill="none" xmlns="http://www.w3.org/2000/svg">
    <g clip-path="url(#clip0_1_42801)">
        <mask id="mask0_1_42801" style="mask-type:luminance" maskUnits="userSpaceOnUse" x="0" y="0" width="270" height="82">
            <path d="M269.45 0H0.601562V82H269.45V0Z" fill="white"/>
        </mask>
        <g mask="url(#mask0_1_42801)">
            <path d="M261.227 0H8.82491C4.28328 0 0.601562 3.67126 0.601562 8.2V73.8C0.601562 78.3287 4.28328 82 8.82491 82H261.227C265.769 82 269.45 78.3287 269.45 73.8V8.2C269.45 3.67126 265.769 0 261.227 0Z" fill="black"/>
            <path d="M54.547 41.3446C54.5881 37.7093 56.5069 34.3473 59.6181 32.4476C57.6445 29.646 54.4648 27.924 51.0384 27.8283C47.4338 27.4456 43.9252 29.9876 42.0886 29.9876C40.2521 29.9876 37.3876 27.8693 34.3313 27.9376C30.3155 28.0606 26.6699 30.2883 24.71 33.787C20.5572 40.962 23.6546 51.5126 27.6429 57.321C29.6303 60.1636 31.9602 63.3343 35.0166 63.225C38.0044 63.102 39.1145 61.3253 42.7054 61.3253C46.2962 61.3253 47.3105 63.225 50.4216 63.143C53.615 63.0883 55.6435 60.2866 57.5622 57.4166C58.9876 55.394 60.0978 53.1526 60.8242 50.7883C57.0277 49.1893 54.547 45.472 54.547 41.3583V41.3446Z" fill="white"/>
            <path d="M48.6821 23.9971C50.4227 21.9061 51.2861 19.2275 51.0805 16.5078C48.4217 16.7811 45.9547 18.0521 44.1866 20.0611C42.446 22.0428 41.5552 24.6395 41.7333 27.2635C44.4333 27.2908 46.9963 26.0881 48.6958 23.9835L48.6821 23.9971Z" fill="white"/>
            <path d="M97.5807 55.9965H87.4111L84.9715 63.1852H80.668L90.303 36.5625H94.7847L104.42 63.1852H100.034L97.5944 55.9965H97.5807ZM88.4527 52.6755H96.5253L92.5507 41.0042H92.4411L88.4664 52.6755H88.4527Z" fill="white"/>
            <path d="M125.213 53.4901C125.213 59.5171 121.979 63.3984 117.086 63.3984C114.564 63.5351 112.179 62.2094 110.959 60.0091H110.863V69.6168H106.875V43.7868H110.74V47.0121H110.809C112.083 44.8118 114.468 43.4998 117.003 43.5818C121.937 43.5818 125.199 47.4768 125.199 53.4901H125.213ZM121.101 53.4901C121.101 49.5541 119.059 46.9711 115.962 46.9711C112.864 46.9711 110.85 49.6088 110.85 53.4901C110.85 57.3714 112.905 60.0228 115.962 60.0228C119.018 60.0228 121.101 57.4534 121.101 53.4901Z" fill="white"/>
            <path d="M146.635 53.4901C146.635 59.5171 143.401 63.3984 138.508 63.3984C135.986 63.5351 133.601 62.2094 132.381 60.0091H132.285V69.6168H128.297V43.7868H132.162V47.0121H132.23C133.505 44.8118 135.89 43.4998 138.425 43.5818C143.359 43.5818 146.621 47.4768 146.621 53.4901H146.635ZM142.523 53.4901C142.523 49.5541 140.481 46.9711 137.384 46.9711C134.286 46.9711 132.271 49.6088 132.271 53.4901C132.271 57.3714 134.327 60.0228 137.384 60.0228C140.44 60.0228 142.523 57.4534 142.523 53.4901Z" fill="white"/>
            <path d="M160.793 55.7699C161.095 58.4075 163.658 60.1432 167.18 60.1432C170.702 60.1432 172.964 58.4075 172.964 56.0295C172.964 53.9659 171.497 52.7222 168.043 51.8749L164.59 51.0412C159.683 49.8659 157.408 47.5699 157.408 43.8662C157.408 39.2742 161.424 36.1172 167.125 36.1172C172.827 36.1172 176.637 39.2742 176.76 43.8662H172.731C172.484 41.2149 170.291 39.6022 167.07 39.6022C163.85 39.6022 161.643 41.2285 161.643 43.5792C161.643 45.4652 163.055 46.5722 166.495 47.4195L169.441 48.1439C174.924 49.4422 177.199 51.6289 177.199 55.5239C177.199 60.4985 173.224 63.6282 166.892 63.6282C160.971 63.6282 156.969 60.5805 156.723 55.7699H160.807H160.793Z" fill="white"/>
            <path d="M185.804 39.1934V43.7854H189.504V46.9424H185.804V57.6434C185.804 59.3107 186.544 60.076 188.175 60.076C188.614 60.076 189.052 60.035 189.491 59.9804V63.11C188.764 63.2467 188.011 63.3014 187.27 63.2877C183.323 63.2877 181.788 61.8117 181.788 58.0534V46.9287H178.965V43.7717H181.788V39.1797H185.804V39.1934Z" fill="white"/>
            <path d="M191.656 53.4884C191.656 47.3794 195.261 43.5391 200.894 43.5391C206.527 43.5391 210.131 47.3794 210.131 53.4884C210.131 59.5974 206.554 63.4377 200.894 63.4377C195.233 63.4377 191.656 59.6111 191.656 53.4884ZM206.047 53.4884C206.047 49.2927 204.128 46.8327 200.88 46.8327C197.632 46.8327 195.713 49.3201 195.713 53.4884C195.713 57.6567 197.632 60.1441 200.88 60.1441C204.128 60.1441 206.047 57.6841 206.047 53.4884Z" fill="white"/>
            <path d="M213.406 43.7864H217.216V47.0937H217.312C217.847 44.9617 219.793 43.4994 222 43.5814C222.466 43.5814 222.918 43.6361 223.37 43.7317V47.4627C222.795 47.2851 222.178 47.2031 221.575 47.2167C219.354 47.1211 217.477 48.8431 217.395 51.0707C217.395 51.2757 217.395 51.4807 217.422 51.6857V63.1931H213.434V43.7864H213.406Z" fill="white"/>
            <path d="M241.791 57.4947C241.257 61.0207 237.817 63.4397 233.417 63.4397C227.757 63.4397 224.234 59.654 224.234 53.586C224.234 47.518 227.77 43.5547 233.239 43.5547C238.707 43.5547 242.011 47.2447 242.011 53.1214V54.488H228.264V54.734C228.017 57.5084 230.073 59.9684 232.869 60.2144C233.074 60.228 233.294 60.2417 233.499 60.228C235.432 60.4057 237.268 59.2987 237.995 57.4947H241.791ZM228.291 51.7H238.022C238.159 49.1307 236.186 46.9304 233.609 46.78C233.486 46.78 233.362 46.78 233.253 46.78C230.525 46.7664 228.319 48.953 228.291 51.659C228.291 51.6727 228.291 51.6864 228.291 51.7Z" fill="white"/>
            <path d="M87.9469 16.5376C91.0718 16.3189 93.7855 18.6559 94.0185 21.7719C94.0459 22.1409 94.0322 22.5236 93.9911 22.8926C93.9911 26.9789 91.7708 29.3296 87.9606 29.3296H83.3281V16.5376H87.9606H87.9469ZM85.3017 27.5256H87.7139C89.9342 27.6623 91.853 25.9676 91.9763 23.7536C91.9901 23.4803 91.9764 23.2069 91.9352 22.9336C92.2368 20.7333 90.688 18.6969 88.4814 18.3963C88.221 18.3553 87.9606 18.3553 87.7139 18.3689H85.3017V27.5393V27.5256Z" fill="white"/>
            <path d="M96.2374 24.4947C95.9907 21.98 97.8411 19.7524 100.363 19.5064C102.885 19.2604 105.119 21.1054 105.365 23.62C105.393 23.907 105.393 24.2077 105.365 24.4947C105.612 27.0094 103.762 29.2507 101.24 29.4967C98.7182 29.7427 96.4704 27.8977 96.2237 25.383C96.1963 25.0824 96.1963 24.7954 96.2237 24.4947H96.2374ZM103.406 24.4947C103.406 22.4037 102.46 21.1737 100.815 21.1737C99.1705 21.1737 98.2248 22.4037 98.2248 24.4947C98.2248 26.5857 99.1568 27.8157 100.815 27.8157C102.474 27.8157 103.406 26.5994 103.406 24.4947Z" fill="white"/>
            <path d="M117.509 29.3284H115.522L113.521 22.2217H113.37L111.382 29.3284H109.423L106.75 19.6797H108.682L110.423 27.046H110.56L112.547 19.6797H114.384L116.371 27.046H116.522L118.249 19.6797H120.154L117.495 29.3284H117.509Z" fill="white"/>
            <path d="M122.402 19.67H124.239V21.2006H124.376C124.869 20.0663 126.034 19.383 127.268 19.4786C129.008 19.342 130.516 20.6403 130.639 22.376C130.653 22.6083 130.639 22.8406 130.612 23.073V29.3186H128.707V23.5513C128.707 21.9933 128.035 21.228 126.624 21.228C125.404 21.1733 124.362 22.1163 124.307 23.3326C124.307 23.442 124.307 23.5513 124.307 23.6743V29.3186H122.402V19.67Z" fill="white"/>
            <path d="M133.668 15.9062H135.573V29.3269H133.668V15.9062Z" fill="white"/>
            <path d="M138.245 24.4947C137.999 21.98 139.849 19.7524 142.371 19.5064C144.892 19.2604 147.126 21.1054 147.373 23.62C147.401 23.907 147.401 24.2077 147.373 24.4947C147.62 27.0094 145.77 29.2507 143.248 29.4967C140.726 29.7427 138.478 27.8977 138.231 25.383C138.204 25.0824 138.204 24.7954 138.231 24.4947H138.245ZM145.413 24.4947C145.413 22.4037 144.468 21.1737 142.823 21.1737C141.178 21.1737 140.233 22.4037 140.233 24.4947C140.233 26.5857 141.164 27.8157 142.823 27.8157C144.481 27.8157 145.413 26.5994 145.413 24.4947Z" fill="white"/>
            <path d="M149.391 26.5989C149.391 24.8632 150.693 23.8655 152.995 23.7152L155.613 23.5649V22.7312C155.613 21.7062 154.941 21.1322 153.626 21.1322C152.557 21.1322 151.817 21.5285 151.611 22.2119H149.761C149.953 20.5582 151.515 19.4922 153.722 19.4922C156.147 19.4922 157.518 20.6949 157.518 22.7312V29.3322H155.681V27.9792H155.531C154.9 28.9632 153.79 29.5509 152.625 29.4962C151.022 29.6602 149.582 28.4985 149.418 26.8995C149.418 26.8039 149.404 26.7082 149.404 26.6125L149.391 26.5989ZM155.613 25.7789V24.9725L153.256 25.1229C151.926 25.2185 151.323 25.6695 151.323 26.5169C151.323 27.3642 152.077 27.8972 153.119 27.8972C154.366 28.0202 155.49 27.1182 155.613 25.8609C155.613 25.8335 155.613 25.8062 155.613 25.7789Z" fill="white"/>
            <path d="M160.025 24.487C160.025 21.4393 161.602 19.4986 164.041 19.4986C165.275 19.444 166.44 20.1 167.015 21.1933H167.152V15.8906H169.057V29.3113H167.221V27.7806H167.07C166.453 28.8603 165.275 29.5163 164.027 29.4616C161.56 29.4616 160.012 27.5346 160.012 24.4733L160.025 24.487ZM161.999 24.487C161.999 26.537 162.972 27.767 164.589 27.767C166.207 27.767 167.193 26.5233 167.193 24.5006C167.193 22.478 166.193 21.2206 164.589 21.2206C162.986 21.2206 161.999 22.4643 161.999 24.487Z" fill="white"/>
            <path d="M176.964 24.4947C176.717 21.98 178.568 19.7524 181.089 19.5064C183.611 19.2604 185.845 21.1054 186.092 23.62C186.119 23.907 186.119 24.2077 186.092 24.4947C186.339 27.0094 184.488 29.2507 181.966 29.4967C179.445 29.7427 177.197 27.8977 176.95 25.383C176.923 25.0824 176.923 24.7954 176.95 24.4947H176.964ZM184.132 24.4947C184.132 22.4037 183.186 21.1737 181.542 21.1737C179.897 21.1737 178.951 22.4037 178.951 24.4947C178.951 26.5857 179.883 27.8157 181.542 27.8157C183.2 27.8157 184.132 26.5994 184.132 24.4947Z" fill="white"/>
            <path d="M188.656 19.67H190.493V21.2006H190.63C191.123 20.0663 192.288 19.383 193.522 19.4786C195.262 19.342 196.77 20.6403 196.893 22.376C196.907 22.6083 196.893 22.8406 196.866 23.073V29.3186H194.961V23.5513C194.961 21.9933 194.289 21.228 192.878 21.228C191.658 21.1733 190.616 22.1163 190.561 23.3326C190.561 23.442 190.561 23.5513 190.561 23.6743V29.3186H188.656V19.67Z" fill="white"/>
            <path d="M207.68 17.2715V19.7178H209.777V21.3168H207.68V26.2778C207.68 27.2891 208.092 27.7265 209.051 27.7265C209.298 27.7265 209.544 27.7128 209.777 27.6855V29.2708C209.435 29.3255 209.092 29.3665 208.736 29.3665C206.611 29.3665 205.762 28.6148 205.762 26.7561V21.3031H204.227V19.7041H205.762V17.2578H207.68V17.2715Z" fill="white"/>
            <path d="M212.381 15.9062H214.272V21.2226H214.423C214.944 20.0882 216.123 19.3912 217.37 19.4869C219.124 19.3912 220.632 20.7306 220.728 22.4936C220.728 22.6986 220.728 22.8899 220.7 23.0949V29.3269H218.781V23.5596C218.781 22.0153 218.055 21.2362 216.712 21.2362C215.465 21.1406 214.382 22.0562 214.272 23.2999C214.272 23.4229 214.272 23.5596 214.272 23.6826V29.3269H212.367V15.9062H212.381Z" fill="white"/>
            <path d="M231.855 26.7219C231.321 28.5395 229.553 29.7149 227.661 29.5099C225.236 29.5782 223.221 27.6649 223.152 25.2459C223.152 25.0135 223.152 24.7675 223.193 24.5352C222.865 22.1025 224.578 19.8612 227.031 19.5332C227.237 19.5059 227.456 19.4922 227.661 19.4922C230.361 19.4922 231.979 21.3235 231.979 24.3575V25.0272H225.14V25.1365C225.016 26.5442 226.072 27.7742 227.47 27.8972C227.552 27.8972 227.634 27.8972 227.716 27.8972C228.648 28.0065 229.567 27.5419 230.019 26.7219H231.855ZM225.14 23.6059H230.033C230.128 22.3212 229.169 21.2005 227.881 21.1049C227.812 21.1049 227.73 21.1049 227.648 21.1049C226.277 21.0912 225.153 22.1845 225.14 23.5375C225.14 23.5649 225.14 23.5785 225.14 23.6059Z" fill="white"/>
        </g>
    </g>
    <defs>
        <clipPath id="clip0_1_42801">
            <rect width="270" height="82" fill="white"/>
        </clipPath>
    </defs>
</svg>
