<svg width="285" height="82" viewBox="0 0 285 82" fill="none" xmlns="http://www.w3.org/2000/svg">
    <g clip-path="url(#clip0_1_42783)">
        <mask id="mask0_1_42783" style="mask-type:luminance" maskUnits="userSpaceOnUse" x="0" y="0" width="285" height="82">
            <path d="M284.236 0H0V82H284.236V0Z" fill="white"/>
        </mask>
        <g mask="url(#mask0_1_42783)">
            <path d="M276.055 0H8.18182C3.66312 0 0 3.67126 0 8.2V73.8C0 78.3287 3.66312 82 8.18182 82H276.055C280.574 82 284.236 78.3287 284.236 73.8V8.2C284.236 3.67126 280.574 0 276.055 0Z" fill="black"/>
            <path d="M99.3277 20.173C99.3277 21.9634 98.7959 23.3847 97.7459 24.4507C96.5595 25.708 94.9913 26.3504 93.055 26.3504C91.1186 26.3504 89.6322 25.708 88.3368 24.4234C87.0413 23.1387 86.4141 21.5534 86.4141 19.6674C86.4141 17.7814 87.055 16.196 88.3368 14.9114C89.6186 13.6267 91.2004 12.9844 93.055 12.9844C93.9959 12.9844 94.8822 13.1484 95.7141 13.49C96.5459 13.818 97.2277 14.2964 97.7732 14.8977L96.6004 16.073C96.205 15.5947 95.7004 15.2257 95.0732 14.9524C94.4459 14.679 93.7777 14.556 93.0686 14.556C91.6777 14.556 90.4913 15.0344 89.5368 16.0047C88.5823 16.9887 88.105 18.205 88.105 19.6674C88.105 21.1297 88.5823 22.3597 89.5368 23.33C90.505 24.3004 91.6777 24.7787 93.0686 24.7787C94.3368 24.7787 95.4004 24.4234 96.2459 23.699C97.0913 22.9884 97.5822 22.0044 97.705 20.747H93.0686V19.2027H99.2595C99.3141 19.5444 99.355 19.8587 99.355 20.173H99.3277Z" fill="white" stroke="white" stroke-width="0.2" stroke-miterlimit="10"/>
            <path d="M109.147 13.2422V14.8138H103.324V18.8728H108.574V20.4171H103.324V24.4761H109.147V26.0478H101.688V13.2422H109.147Z" fill="white" stroke="white" stroke-width="0.2" stroke-miterlimit="10"/>
            <path d="M116.074 14.8138V26.0478H114.424V14.8138H110.852V13.2422H119.633V14.8138H116.061H116.074Z" fill="white" stroke="white" stroke-width="0.2" stroke-miterlimit="10"/>
            <path d="M127.652 26.0478H126.016V13.2422H127.652V26.0478Z" fill="white" stroke="white" stroke-width="0.2" stroke-miterlimit="10"/>
            <path d="M134.934 14.8138V26.0478H133.284V14.8138H129.711V13.2422H138.493V14.8138H134.92H134.934Z" fill="white" stroke="white" stroke-width="0.2" stroke-miterlimit="10"/>
            <path d="M157.009 19.6518C157.009 21.5514 156.381 23.1368 155.113 24.4078C153.831 25.6924 152.277 26.3348 150.436 26.3348C148.595 26.3348 147.013 25.6924 145.759 24.4078C144.504 23.1368 143.863 21.5378 143.863 19.6518C143.863 17.7658 144.491 16.1668 145.759 14.8958C147.013 13.6111 148.581 12.9688 150.436 12.9688C152.291 12.9688 153.859 13.6247 155.113 14.9231C156.368 16.1941 157.009 17.7794 157.009 19.6654V19.6518ZM145.541 19.6518C145.541 21.1278 146.004 22.3578 146.931 23.3144C147.872 24.2848 149.045 24.7631 150.436 24.7631C151.827 24.7631 152.986 24.2848 153.913 23.3144C154.854 22.3578 155.318 21.1414 155.318 19.6518C155.318 18.1621 154.854 16.9321 153.913 15.9891C152.986 15.0188 151.827 14.5404 150.436 14.5404C149.045 14.5404 147.872 15.0188 146.931 15.9891C146.004 16.9594 145.541 18.1758 145.541 19.6518Z" fill="white" stroke="white" stroke-width="0.2" stroke-miterlimit="10"/>
            <path d="M160.964 26.0459H159.328V13.2402H161.333L167.551 23.2032H167.619L167.551 20.7295V13.2266H169.201V26.0322H167.483L160.978 15.5772H160.91L160.978 18.0509V26.0322L160.964 26.0459Z" fill="white" stroke="white" stroke-width="0.2" stroke-miterlimit="10"/>
            <path d="M143.469 44.7481C138.451 44.7481 134.373 48.5611 134.373 53.8365C134.373 59.1118 138.464 62.9248 143.469 62.9248C148.473 62.9248 152.564 59.0708 152.564 53.8365C152.564 48.6021 148.473 44.7481 143.469 44.7481ZM143.469 59.3305C140.728 59.3305 138.355 57.0618 138.355 53.8228C138.355 50.5838 140.728 48.3151 143.469 48.3151C146.21 48.3151 148.582 50.5565 148.582 53.8228C148.582 57.0891 146.21 59.3305 143.469 59.3305ZM123.628 44.7481C118.61 44.7481 114.532 48.5611 114.532 53.8365C114.532 59.1118 118.623 62.9248 123.628 62.9248C128.632 62.9248 132.723 59.0708 132.723 53.8365C132.723 48.6021 128.632 44.7481 123.628 44.7481ZM123.628 59.3305C120.887 59.3305 118.514 57.0618 118.514 53.8228C118.514 50.5838 120.887 48.3151 123.628 48.3151C126.369 48.3151 128.742 50.5565 128.742 53.8228C128.742 57.0891 126.369 59.3305 123.628 59.3305ZM100.023 47.5361V51.3901H109.228C108.955 53.5631 108.232 55.1348 107.128 56.2418C105.792 57.5811 103.692 59.0571 100.023 59.0571C94.3643 59.0571 89.9325 54.4788 89.9325 48.8071C89.9325 43.1355 94.3643 38.5571 100.023 38.5571C103.078 38.5571 105.314 39.7598 106.951 41.3041L109.664 38.5845C107.36 36.3841 104.305 34.7031 100.023 34.7031C92.2643 34.7031 85.7461 41.0308 85.7461 48.8071C85.7461 56.5835 92.2643 62.9111 100.023 62.9111C104.21 62.9111 107.373 61.5308 109.842 58.9615C112.378 56.4195 113.169 52.8388 113.169 49.9415C113.169 49.0531 113.101 48.2195 112.964 47.5361H100.023ZM196.555 50.5291C195.805 48.4928 193.501 44.7481 188.796 44.7481C184.092 44.7481 180.246 48.4245 180.246 53.8365C180.246 58.9341 184.092 62.9248 189.246 62.9248C193.405 62.9248 195.805 60.3828 196.801 58.8931L193.705 56.8295C192.669 58.3465 191.264 59.3441 189.246 59.3441C187.228 59.3441 185.782 58.4148 184.855 56.5971L196.978 51.5678L196.569 50.5291H196.555ZM184.201 53.5631C184.092 50.0508 186.914 48.2605 188.932 48.2605C190.514 48.2605 191.851 49.0531 192.301 50.1875L184.201 53.5631ZM174.355 62.3645H178.337V35.6735H174.355V62.3645ZM167.837 46.7845H167.701C166.814 45.7185 165.096 44.7481 162.928 44.7481C158.401 44.7481 154.242 48.7388 154.242 53.8638C154.242 58.9888 158.401 62.9111 162.928 62.9111C165.096 62.9111 166.801 61.9545 167.701 60.8475H167.837V62.1595C167.837 65.6308 165.982 67.4895 162.996 67.4895C160.555 67.4895 159.055 65.7401 158.428 64.2505L154.964 65.6991C155.96 68.1045 158.605 71.0701 162.996 71.0701C167.66 71.0701 171.614 68.3231 171.614 61.6128V45.3085H167.837V46.7845ZM163.269 59.3441C160.528 59.3441 158.223 57.0345 158.223 53.8775C158.223 50.7205 160.528 48.3425 163.269 48.3425C166.01 48.3425 168.11 50.6795 168.11 53.8775C168.11 57.0755 165.982 59.3441 163.269 59.3441ZM215.21 35.6735H205.678V62.3645H209.66V52.2511H215.21C219.614 52.2511 223.951 49.0531 223.951 43.9555C223.951 38.8578 219.614 35.6598 215.21 35.6598V35.6735ZM215.319 48.5338H209.66V39.3771H215.319C218.292 39.3771 219.982 41.8371 219.982 43.9555C219.982 46.0738 218.292 48.5338 215.319 48.5338ZM239.892 44.6935C237.014 44.6935 234.028 45.9645 232.801 48.7798L236.332 50.2558C237.082 48.7798 238.487 48.3015 239.96 48.3015C242.019 48.3015 244.105 49.5315 244.146 51.7318V52.0051C243.423 51.5951 241.882 50.9801 240.001 50.9801C236.196 50.9801 232.323 53.0711 232.323 56.9935C232.323 60.5605 235.446 62.8701 238.937 62.8701C241.61 62.8701 243.082 61.6675 244.01 60.2598H244.146V62.3235H247.978V52.0871C247.978 47.3448 244.446 44.7071 239.892 44.7071V44.6935ZM239.414 59.3305C238.119 59.3305 236.292 58.6745 236.292 57.0618C236.292 54.9981 238.555 54.2055 240.505 54.2055C242.251 54.2055 243.069 54.5881 244.132 55.0938C243.819 57.5675 241.705 59.3168 239.401 59.3168L239.414 59.3305ZM261.969 45.2811L257.414 56.8568H257.278L252.546 45.2811H248.264L255.355 61.4625L251.305 70.4551H255.451L266.387 45.2811H261.969ZM226.16 62.3645H230.142V35.6735H226.16V62.3645Z" fill="white"/>
            <path d="M42.437 39.7734L19.7461 63.9088C19.7461 63.9088 19.7461 63.9088 19.7461 63.9224C20.4415 66.5464 22.8279 68.4734 25.6643 68.4734C26.7961 68.4734 27.8597 68.1728 28.7734 67.6261L28.8415 67.5851L54.3688 52.8251L42.4234 39.7871L42.437 39.7734Z" fill="#E64335"/>
            <path d="M65.3862 35.6577H65.3589L54.3407 29.2344L41.918 40.3044L54.3816 52.7957L65.3452 46.4544C67.268 45.4157 68.5771 43.3794 68.5771 41.0424C68.5771 38.7054 67.2952 36.6964 65.3862 35.6577Z" fill="#F7B804"/>
            <path d="M19.7436 18.1094C19.6072 18.615 19.5391 19.148 19.5391 19.6947V62.3347C19.5391 62.8814 19.6072 63.4144 19.7436 63.92L43.2118 40.4134L19.7436 18.1094Z" fill="#4281F0"/>
            <path d="M42.5987 41.0032L54.3396 29.2362L28.8396 14.4215C27.9124 13.8612 26.8351 13.5469 25.676 13.5469C22.8396 13.5469 20.4533 15.4739 19.7578 18.0979L42.6124 41.0032H42.5987Z" fill="#34A453"/>
        </g>
    </g>
    <defs>
        <clipPath id="clip0_1_42783">
            <rect width="285" height="82" fill="white"/>
        </clipPath>
    </defs>
</svg>
